<mxfile host="Electron" agent="Mozilla/5.0 (Windows NT 10.0; Win64; x64) AppleWebKit/537.36 (KHTML, like Gecko) draw.io/25.0.2 Chrome/128.0.6613.186 Electron/32.2.5 Safari/537.36" version="25.0.2">
  <diagram name="Страница — 1" id="xor5v47UbdHk0WgQMwp9">
    <mxGraphModel dx="521" dy="709" grid="1" gridSize="10" guides="1" tooltips="1" connect="1" arrows="1" fold="1" page="1" pageScale="1" pageWidth="827" pageHeight="1169" math="0" shadow="0">
      <root>
        <mxCell id="0" />
        <mxCell id="1" parent="0" />
        <mxCell id="p71N7ng7_zQ5OIhSm6_l-6" style="edgeStyle=orthogonalEdgeStyle;rounded=0;orthogonalLoop=1;jettySize=auto;html=1;exitX=0.5;exitY=1;exitDx=0;exitDy=0;exitPerimeter=0;entryX=0.5;entryY=0;entryDx=0;entryDy=0;" edge="1" parent="1" source="p71N7ng7_zQ5OIhSm6_l-1" target="p71N7ng7_zQ5OIhSm6_l-5">
          <mxGeometry relative="1" as="geometry" />
        </mxCell>
        <mxCell id="p71N7ng7_zQ5OIhSm6_l-1" value="начало" style="strokeWidth=2;html=1;shape=mxgraph.flowchart.start_1;whiteSpace=wrap;" vertex="1" parent="1">
          <mxGeometry x="364" y="10" width="100" height="60" as="geometry" />
        </mxCell>
        <mxCell id="p71N7ng7_zQ5OIhSm6_l-2" value="" style="strokeWidth=2;html=1;shape=mxgraph.flowchart.annotation_2;align=left;labelPosition=right;pointerEvents=1;" vertex="1" parent="1">
          <mxGeometry x="464" y="30" width="50" height="100" as="geometry" />
        </mxCell>
        <mxCell id="p71N7ng7_zQ5OIhSm6_l-3" value="&lt;div style=&quot;text-align: justify;&quot;&gt;#include &amp;lt;iostream&amp;gt;&lt;/div&gt;&lt;div style=&quot;text-align: justify;&quot;&gt;using namespace std;&lt;/div&gt;" style="text;html=1;align=center;verticalAlign=middle;resizable=0;points=[];autosize=1;strokeColor=none;fillColor=none;" vertex="1" parent="1">
          <mxGeometry x="490" y="50" width="140" height="40" as="geometry" />
        </mxCell>
        <mxCell id="p71N7ng7_zQ5OIhSm6_l-4" value="" style="endArrow=none;dashed=1;html=1;rounded=0;entryX=0.5;entryY=1;entryDx=0;entryDy=0;entryPerimeter=0;exitX=0;exitY=0.5;exitDx=0;exitDy=0;exitPerimeter=0;" edge="1" parent="1" source="p71N7ng7_zQ5OIhSm6_l-2" target="p71N7ng7_zQ5OIhSm6_l-1">
          <mxGeometry width="50" height="50" relative="1" as="geometry">
            <mxPoint x="360" y="170" as="sourcePoint" />
            <mxPoint x="410" y="120" as="targetPoint" />
            <Array as="points">
              <mxPoint x="414" y="80" />
            </Array>
          </mxGeometry>
        </mxCell>
        <mxCell id="p71N7ng7_zQ5OIhSm6_l-11" style="edgeStyle=orthogonalEdgeStyle;rounded=0;orthogonalLoop=1;jettySize=auto;html=1;exitX=0.5;exitY=1;exitDx=0;exitDy=0;entryX=0.5;entryY=0;entryDx=0;entryDy=0;" edge="1" parent="1" source="p71N7ng7_zQ5OIhSm6_l-5" target="p71N7ng7_zQ5OIhSm6_l-7">
          <mxGeometry relative="1" as="geometry" />
        </mxCell>
        <mxCell id="p71N7ng7_zQ5OIhSm6_l-5" value="int main()" style="shape=process;whiteSpace=wrap;html=1;backgroundOutline=1;" vertex="1" parent="1">
          <mxGeometry x="354" y="100" width="120" height="60" as="geometry" />
        </mxCell>
        <mxCell id="p71N7ng7_zQ5OIhSm6_l-12" style="edgeStyle=orthogonalEdgeStyle;rounded=0;orthogonalLoop=1;jettySize=auto;html=1;exitX=0.5;exitY=1;exitDx=0;exitDy=0;" edge="1" parent="1" source="p71N7ng7_zQ5OIhSm6_l-7" target="p71N7ng7_zQ5OIhSm6_l-8">
          <mxGeometry relative="1" as="geometry" />
        </mxCell>
        <mxCell id="p71N7ng7_zQ5OIhSm6_l-7" value="setlocale(LC_ALL, &quot;RU&quot;);" style="rounded=0;whiteSpace=wrap;html=1;" vertex="1" parent="1">
          <mxGeometry x="354" y="180" width="120" height="60" as="geometry" />
        </mxCell>
        <mxCell id="p71N7ng7_zQ5OIhSm6_l-16" style="edgeStyle=orthogonalEdgeStyle;rounded=0;orthogonalLoop=1;jettySize=auto;html=1;exitX=0.5;exitY=1;exitDx=0;exitDy=0;entryX=0.5;entryY=0;entryDx=0;entryDy=0;" edge="1" parent="1" source="p71N7ng7_zQ5OIhSm6_l-8" target="p71N7ng7_zQ5OIhSm6_l-15">
          <mxGeometry relative="1" as="geometry" />
        </mxCell>
        <mxCell id="p71N7ng7_zQ5OIhSm6_l-8" value="cout &amp;lt;&amp;lt; &quot;Введите желаемое число фибоначи: &quot; &amp;lt;&amp;lt; endl;" style="shape=parallelogram;perimeter=parallelogramPerimeter;whiteSpace=wrap;html=1;fixedSize=1;" vertex="1" parent="1">
          <mxGeometry x="354" y="260" width="120" height="60" as="geometry" />
        </mxCell>
        <mxCell id="p71N7ng7_zQ5OIhSm6_l-9" value="cout &amp;lt;&amp;lt; fib(n);" style="shape=parallelogram;perimeter=parallelogramPerimeter;whiteSpace=wrap;html=1;fixedSize=1;" vertex="1" parent="1">
          <mxGeometry x="354" y="420" width="120" height="60" as="geometry" />
        </mxCell>
        <mxCell id="p71N7ng7_zQ5OIhSm6_l-10" value="return 0;" style="strokeWidth=2;html=1;shape=mxgraph.flowchart.start_1;whiteSpace=wrap;" vertex="1" parent="1">
          <mxGeometry x="364" y="500" width="100" height="60" as="geometry" />
        </mxCell>
        <mxCell id="p71N7ng7_zQ5OIhSm6_l-14" style="edgeStyle=orthogonalEdgeStyle;rounded=0;orthogonalLoop=1;jettySize=auto;html=1;exitX=0.5;exitY=1;exitDx=0;exitDy=0;entryX=0.5;entryY=0;entryDx=0;entryDy=0;entryPerimeter=0;" edge="1" parent="1" source="p71N7ng7_zQ5OIhSm6_l-9" target="p71N7ng7_zQ5OIhSm6_l-10">
          <mxGeometry relative="1" as="geometry" />
        </mxCell>
        <mxCell id="p71N7ng7_zQ5OIhSm6_l-17" style="edgeStyle=orthogonalEdgeStyle;rounded=0;orthogonalLoop=1;jettySize=auto;html=1;exitX=0.5;exitY=1;exitDx=0;exitDy=0;entryX=0.5;entryY=0;entryDx=0;entryDy=0;" edge="1" parent="1" source="p71N7ng7_zQ5OIhSm6_l-15" target="p71N7ng7_zQ5OIhSm6_l-9">
          <mxGeometry relative="1" as="geometry" />
        </mxCell>
        <mxCell id="p71N7ng7_zQ5OIhSm6_l-15" value="cin &amp;gt;&amp;gt; n;" style="shape=parallelogram;perimeter=parallelogramPerimeter;whiteSpace=wrap;html=1;fixedSize=1;" vertex="1" parent="1">
          <mxGeometry x="354" y="340" width="120" height="60" as="geometry" />
        </mxCell>
        <mxCell id="p71N7ng7_zQ5OIhSm6_l-27" style="edgeStyle=orthogonalEdgeStyle;rounded=0;orthogonalLoop=1;jettySize=auto;html=1;exitX=0.5;exitY=1;exitDx=0;exitDy=0;entryX=0.5;entryY=0;entryDx=0;entryDy=0;" edge="1" parent="1" source="p71N7ng7_zQ5OIhSm6_l-18" target="p71N7ng7_zQ5OIhSm6_l-19">
          <mxGeometry relative="1" as="geometry" />
        </mxCell>
        <mxCell id="p71N7ng7_zQ5OIhSm6_l-18" value="int fib(int n)" style="shape=process;whiteSpace=wrap;html=1;backgroundOutline=1;" vertex="1" parent="1">
          <mxGeometry x="80" y="100" width="120" height="60" as="geometry" />
        </mxCell>
        <mxCell id="p71N7ng7_zQ5OIhSm6_l-25" style="edgeStyle=orthogonalEdgeStyle;rounded=0;orthogonalLoop=1;jettySize=auto;html=1;exitX=1;exitY=0.5;exitDx=0;exitDy=0;" edge="1" parent="1" source="p71N7ng7_zQ5OIhSm6_l-19">
          <mxGeometry relative="1" as="geometry">
            <mxPoint x="140" y="320" as="targetPoint" />
            <Array as="points">
              <mxPoint x="230" y="205" />
              <mxPoint x="230" y="320" />
            </Array>
          </mxGeometry>
        </mxCell>
        <mxCell id="p71N7ng7_zQ5OIhSm6_l-19" value="if (n &amp;lt;= 1)" style="rhombus;whiteSpace=wrap;html=1;" vertex="1" parent="1">
          <mxGeometry x="100" y="180" width="80" height="50" as="geometry" />
        </mxCell>
        <mxCell id="p71N7ng7_zQ5OIhSm6_l-24" style="edgeStyle=orthogonalEdgeStyle;rounded=0;orthogonalLoop=1;jettySize=auto;html=1;exitX=0.5;exitY=1;exitDx=0;exitDy=0;exitPerimeter=0;" edge="1" parent="1" source="p71N7ng7_zQ5OIhSm6_l-20">
          <mxGeometry relative="1" as="geometry">
            <mxPoint x="140" y="320" as="targetPoint" />
            <Array as="points">
              <mxPoint x="60" y="320" />
            </Array>
          </mxGeometry>
        </mxCell>
        <mxCell id="p71N7ng7_zQ5OIhSm6_l-20" value="return n;" style="strokeWidth=2;html=1;shape=mxgraph.flowchart.start_1;whiteSpace=wrap;" vertex="1" parent="1">
          <mxGeometry x="10" y="240" width="100" height="60" as="geometry" />
        </mxCell>
        <mxCell id="p71N7ng7_zQ5OIhSm6_l-21" style="edgeStyle=orthogonalEdgeStyle;rounded=0;orthogonalLoop=1;jettySize=auto;html=1;exitX=0;exitY=0.5;exitDx=0;exitDy=0;entryX=0.5;entryY=0;entryDx=0;entryDy=0;entryPerimeter=0;" edge="1" parent="1" source="p71N7ng7_zQ5OIhSm6_l-19" target="p71N7ng7_zQ5OIhSm6_l-20">
          <mxGeometry relative="1" as="geometry" />
        </mxCell>
        <mxCell id="p71N7ng7_zQ5OIhSm6_l-22" value="return fib(n - 1) + fib(n - 2);" style="strokeWidth=2;html=1;shape=mxgraph.flowchart.start_1;whiteSpace=wrap;" vertex="1" parent="1">
          <mxGeometry x="90" y="360" width="100" height="60" as="geometry" />
        </mxCell>
        <mxCell id="p71N7ng7_zQ5OIhSm6_l-26" value="" style="endArrow=classic;html=1;rounded=0;entryX=0.5;entryY=0;entryDx=0;entryDy=0;entryPerimeter=0;" edge="1" parent="1" target="p71N7ng7_zQ5OIhSm6_l-22">
          <mxGeometry width="50" height="50" relative="1" as="geometry">
            <mxPoint x="140" y="320" as="sourcePoint" />
            <mxPoint x="190" y="270" as="targetPoint" />
          </mxGeometry>
        </mxCell>
        <mxCell id="p71N7ng7_zQ5OIhSm6_l-28" value="1" style="text;html=1;align=center;verticalAlign=middle;resizable=0;points=[];autosize=1;strokeColor=none;fillColor=none;" vertex="1" parent="1">
          <mxGeometry x="55" y="178" width="30" height="30" as="geometry" />
        </mxCell>
        <mxCell id="p71N7ng7_zQ5OIhSm6_l-29" value="0" style="text;html=1;align=center;verticalAlign=middle;resizable=0;points=[];autosize=1;strokeColor=none;fillColor=none;" vertex="1" parent="1">
          <mxGeometry x="185" y="178" width="30" height="30" as="geometry" />
        </mxCell>
        <mxCell id="p71N7ng7_zQ5OIhSm6_l-30" value="{" style="text;html=1;align=center;verticalAlign=middle;resizable=0;points=[];autosize=1;strokeColor=none;fillColor=none;" vertex="1" parent="1">
          <mxGeometry x="45" y="138" width="30" height="30" as="geometry" />
        </mxCell>
        <mxCell id="p71N7ng7_zQ5OIhSm6_l-31" value="}" style="text;html=1;align=center;verticalAlign=middle;resizable=0;points=[];autosize=1;strokeColor=none;fillColor=none;" vertex="1" parent="1">
          <mxGeometry x="205" y="408" width="30" height="30" as="geometry" />
        </mxCell>
        <mxCell id="p71N7ng7_zQ5OIhSm6_l-32" value="{" style="text;html=1;align=center;verticalAlign=middle;resizable=0;points=[];autosize=1;strokeColor=none;fillColor=none;" vertex="1" parent="1">
          <mxGeometry x="325" y="118" width="30" height="30" as="geometry" />
        </mxCell>
        <mxCell id="p71N7ng7_zQ5OIhSm6_l-33" value="}" style="text;html=1;align=center;verticalAlign=middle;resizable=0;points=[];autosize=1;strokeColor=none;fillColor=none;" vertex="1" parent="1">
          <mxGeometry x="465" y="528" width="30" height="30" as="geometry" />
        </mxCell>
      </root>
    </mxGraphModel>
  </diagram>
</mxfile>
